# AST/ASF file generated using VICON BodyLanguage
# -----------------------------------------------
:version 1.10
:name VICON
:units
  mass 1.0
  length 0.45
  angle deg
:documentation
   .ast/.asf automatically generated from VICON data using
   VICON BodyBuilder and BodyLanguage model FoxedUp or BRILLIANT.MOD
:root
   order TX TY TZ RX RY RZ
   axis XYZ
   position 0 0 0  
   orientation 0 0 0 
:bonedata
  begin
     id 1 
     name lhipjoint
     direction 0.734343 -0.627749 0.258209 
     length 2.5437 
     axis 0 0 0  XYZ
  end
  begin
     id 2 
     name lfemur
     direction 0.34202 -0.939693 0  
     length 6.7391  
     axis 0 0 20  XYZ
    dof rx ry rz
    limits (-160.0 20.0)
           (-70.0 70.0)
           (-60.0 70.0)
  end
  begin
     id 3 
     name ltibia
     direction 0.34202 -0.939693 0   
     length 7.21536   
     axis 0 0 20   XYZ
    dof rx
    limits (-10.0 170.0)
  end
  begin
     id 4 
     name lfoot
     direction 0.0489572 -0.134509 0.989702   
     length 1.61313   
     axis -90 7.62852e-016 20   XYZ
    dof rx rz
    limits (-45.0 90.0)
           (-70.0 20.0)
  end
  begin
     id 5 
     name ltoes
     direction 1.53451e-011 -4.21692e-011 1   
     length 0.823104   
     axis -90 7.62852e-016 20   XYZ
    dof rx
    limits (-90.0 20.0)
  end
  begin
     id 6 
     name rhipjoint
     direction -0.746398 -0.615468 0.253157   
     length 2.59446  
     axis 0 0 0  XYZ 
  end
  begin
     id 7 
     name rfemur
     direction -0.34202 -0.939693 0   
     length 6.7075   
     axis 0 0 -20   XYZ
    dof rx ry rz
    limits (-160.0 20.0)
           (-70.0 70.0)
           (-70.0 60.0)
  end
  begin
     id 8 
     name rtibia
     direction -0.34202 -0.939693 0   
     length 7.27262   
     axis 0 0 -20   XYZ
    dof rx
    limits (-10.0 170.0)
 end
 begin
     id 9 
     name rfoot
     direction -0.0455203 -0.125066 0.991104   
     length 1.91095  
     axis -90 -7.62852e-016 -20   XYZ
    dof rx rz
    limits (-45.0 90.0)
           (-20.0 70.0)
  end
  begin
     id 10 
     name rtoes
     direction -1.53601e-011 -4.21913e-011 1   
     length 0.969037   
     axis -90 -7.62852e-016 -20   XYZ
    dof rx
    limits (-90.0 20.0)
  end
  begin
     id 11 
     name lowerback
     direction 0.0181546 0.999122 -0.0377542   
     length 1.99916   
     axis 0 0 0   XYZ
    dof rx ry rz
    limits (-20.0 45.0)
           (-30.0 30.0)
           (-30.0 30.0)
  end
  begin
     id 12 
     name upperback
     direction 0.0203486 0.99589 0.0882534   
     length 1.951   
     axis 0 0 0   XYZ
    dof rx ry rz
    limits (-20.0 45.0)
           (-30.0 30.0)
           (-30.0 30.0)
  end
  begin
     id 13 
     name thorax
     direction 0.0131685 0.994241 0.106355   
     length 1.97461   
     axis 0 0 0   XYZ
    dof rx ry rz
    limits (-20.0 45.0)
           (-30.0 30.0)
           (-30.0 30.0)
  end
  begin
     id 14 
     name lowerneck
     direction -0.0281395 0.999325 0.023617   
     length 1.7959   
     axis 0 0 0   XYZ
    dof rx ry rz
    limits (-20.0 45.0)
           (-30.0 30.0)
           (-30.0 30.0)
  end
  begin
     id 15 
     name upperneck
     direction 0.0288721 0.991984 -0.123019   
     length 1.79917   
     axis 0 0 0   XYZ
    dof rx ry rz
    limits (-20.0 45.0)
           (-30.0 30.0)
           (-30.0 30.0)
  end
  begin
     id 16
     name head
     direction 0.0133797 0.998944 -0.0439492  
     length 1.80902  
     axis 0 0 0   XYZ
    dof rx ry rz
    limits (-20.0 45.0)
           (-30.0 30.0)
           (-30.0 30.0)
  end
  begin
     id 17 
     name lclavicle
     direction 0.919195 0.377107 0.113449  
     length 3.17815  
     axis 0 0 0   XYZ
    dof ry rz
    limits (-20.0 10.0)
           (0.0 20.0)
  end
  begin
     id 18 
     name lhumerus
     direction 1 -4.48959e-011 2.13129e-027   
     length 4.84137   
     axis 180 -30 -90   XYZ
    dof rx ry rz
    limits (-60.0 90.0)
           (-90.0 90.0)
           (-90.0 90.0)
  end
  begin
     id 19
     name lradius
     direction 1 -4.48957e-011 -6.30627e-028   
     length 3.2452   
     axis 180 -30 -90   XYZ
    dof rx
    limits (-10.0 170.0)
  end
  begin
     id 20
     name lwrist
     direction 1 -4.4901e-011 9.13299e-027   
     length 1.6226   
     axis -6.84618e-015 90 90   XYZ
    dof ry
    limits (-180.0 0.0)
 end
  begin
     id 21 
     name lhand
     direction 1 -4.48816e-011 1.82293e-026   
     length 0.521221   
     axis -1.16502e-014 90 90   XYZ
    dof rx rz
    limits (-90.0 90.0)
           (-45.0 45.0)
  end
  begin
     id 22 
     name lfingers
     direction 1 -4.49108e-011 3.65687e-026   
     length 0.420221   
     axis -2.33008e-014 90 90   XYZ
    dof rx
    limits (0.0 90.0)
  end
  begin
     id 23
     name lthumb
     direction 0.707107 -6.34943e-011 0.707107   
     length 0.603356   
     axis -90 45 5.69224e-014   XYZ
    dof rx rz
    limits (-45.0 45.0)
           (-45.0 45.0)
  end
  begin
     id 24 
     name rclavicle
     direction -0.90847 0.38596 0.160368   
     length 3.12973  
     axis 0 0 0   XYZ 
    dof ry rz
    limits (-10.0 20.0)
           (-20.0 0.0)
  end
  begin
     id 25 
     name rhumerus
     direction -1 -4.48974e-011 4.47268e-028  
     length 4.72284   
     axis 180 30 90   XYZ
    dof rx ry rz
    limits (-90.0 60.0)
           (-90.0 90.0)
           (-90.0 90.0)
  end
  begin
     id 26 
     name rradius
     direction -1 -4.48969e-011 3.43203e-027   
     length 3.23459   
     axis 180 30 90   XYZ
    dof rx
    limits (-10.0 170.0)
  end
  begin
     id 27 
     name rwrist
     direction -1 -4.48969e-011 9.12911e-027   
     length 1.6173   
     axis -6.84618e-015 -90 -90   XYZ
    dof ry
    limits (-180.0 0.0)
  end
  begin
     id 28
     name rhand
     direction -1 -4.49194e-011 1.83006e-026   
     length 0.307416   
     axis -1.16502e-014 -90 -90   XYZ
    dof rx rz
    limits (-90.0 90.0)
           (-45.0 45.0)
  end
  begin
     id 29
     name rfingers
     direction -1 -4.48423e-011 3.63103e-026   
     length 0.247847   
     axis -2.33008e-014 -90 -90   XYZ
    dof rx
    limits (0.0 90.0)
  end
  begin
     id 30
     name rthumb
     direction -0.707107 -6.34802e-011 0.707107   
     length 0.35586   
     axis -90 -45 -5.69224e-014   XYZ
    dof rx rz
    limits (-45.0 45.0)
           (-45.0 45.0)
  end
:hierarchy
  begin
    root lhipjoint rhipjoint lowerback
    lhipjoint lfemur
    lfemur ltibia
    ltibia lfoot
    lfoot ltoes
    rhipjoint rfemur
    rfemur rtibia
    rtibia rfoot
    rfoot rtoes
    lowerback upperback
    upperback thorax
    thorax lowerneck lclavicle rclavicle
    lowerneck upperneck
    upperneck head
    lclavicle lhumerus
    lhumerus lradius
    lradius lwrist
    lwrist lhand lthumb
    lhand lfingers
    rclavicle rhumerus
    rhumerus rradius
    rradius rwrist
    rwrist rhand rthumb
    rhand rfingers
  end

#!OML:ASF H:\Terrain\Patient Classification 1\Animal1\Tuesday\Animal1.ASF
:FULLY-SPECIFIED
:DEGREES
184
root 8.36079 15.6403 -16.1852 4.42161 16.6491 -3.97231
lowerback -0.320297 0.875932 1.37277
upperback -5.41298 1.3222 1.94431
thorax -5.43391 0.655458 1.18688
lowerneck 12.5297 3.7138 -2.79999
upperneck -15.6936 5.34456 4.48891
head -7.06446 2.35008 1.38638
rclavicle -8.13775e-015 2.88238e-015
rhumerus -46.1867 -13.418 -22.3029
rradius 145.956
rwrist -68.9283
rhand -21.4809 38.0502
rfingers 7.12502
rthumb 4.91002 8.12711
lclavicle -8.13775e-015 2.88238e-015
lhumerus -52.4257 17.5605 10.4946
lradius 144.455
lwrist 60.8914
lhand 11.3389 27.6576
lfingers 7.12502
lthumb 36.3951 53.8761
rfemur -22.1959 5.9756 30.9419
rtibia 40.229
rfoot -20.2291 -27.8054
rtoes 21.142
lfemur -38.7705 -22.9019 7.22687
ltibia 22.9275
lfoot -14.9815 19.7128
ltoes -15.1807
185
root 8.38243 15.6357 -16.1508 4.39013 16.7408 -3.66342
lowerback -0.43417 0.907248 0.991498
upperback -5.38797 1.35074 1.95124
thorax -5.35132 0.687864 1.40797
lowerneck 12.8229 3.75762 -2.61186
upperneck -15.4848 5.39856 4.33945
head -7.04082 2.37548 1.2978
rclavicle 1.04362e-015 9.34288e-015
rhumerus -45.9654 -12.0461 -21.5788
rradius 145.606
rwrist -68.7327
rhand -20.811 37.2016
rfingers 7.12502
rthumb 5.55681 7.29448
lclavicle 1.04362e-015 9.34288e-015
lhumerus -52.4825 15.9068 10.6987
lradius 144.579
lwrist 60.2374
lhand 10.3777 27.6832
lfingers 7.12502
lthumb 35.4845 54.1247
rfemur -22.0295 5.77575 30.5991
rtibia 40.4804
rfoot -21.0616 -27.5067
rtoes 22.1548
lfemur -38.4495 -23.3011 6.72154
ltibia 22.815
lfoot -14.96 20.0258
ltoes -15.9524
186
root 8.404 15.6268 -16.1171 4.25521 16.9101 -3.64025
lowerback -0.526976 0.846255 0.953362
upperback -5.38969 1.2691 2.0137
thorax -5.30104 0.650917 1.4989
lowerneck 13.1316 3.8302 -2.51814
upperneck -15.2139 5.49611 4.33321
head -7.00796 2.41543 1.26646
rclavicle 2.64384e-014 -7.95139e-015
rhumerus -45.4587 -10.4348 -21.404
rradius 145.249
rwrist -68.2502
rhand -20.7434 36.6905
rfingers 7.12502
rthumb 5.62214 6.78504
lclavicle 2.64384e-014 -7.95139e-015
lhumerus -52.4813 14.2691 10.7943
lradius 144.593
lwrist 59.1629
lhand 10.2095 27.6629
lfingers 7.12502
lthumb 35.325 54.1424
rfemur -21.8501 5.48031 30.5771
rtibia 40.7796
rfoot -21.4906 -27.5077
rtoes 22.0342
lfemur -38.0495 -23.4724 6.39957
ltibia 22.6485
lfoot -15.2184 19.5974
ltoes -14.8452
187
root 8.42633 15.6095 -16.0832 4.04631 17.0695 -3.67267
lowerback -0.532171 0.779216 0.97036
upperback -5.3982 1.18441 2.10743
thorax -5.30738 0.61066 1.59018
lowerneck 13.1059 3.96267 -2.67341
upperneck -14.3954 5.64299 4.55153
head -6.7562 2.48623 1.35126
rclavicle -7.70042e-014 -3.53837e-014
rhumerus -44.7121 -8.91015 -21.1949
rradius 145.004
rwrist -68.0063
rhand -20.825 36.5362
rfingers 7.12502
rthumb 5.5433 6.6287
lclavicle -7.70042e-014 -3.53837e-014
lhumerus -52.3633 12.7844 10.8606
lradius 144.533
lwrist 58.0712
lhand 10.5874 27.7172
lfingers 7.12502
lthumb 35.6833 54.1109
rfemur -21.6357 5.17417 30.6095
rtibia 41.0485
rfoot -21.7209 -27.5169
rtoes 21.7304
lfemur -37.6059 -23.4938 6.03882
ltibia 22.5889
lfoot -15.4765 19.0617
ltoes -15.2786
188
root 8.45264 15.5932 -16.0458 3.91153 17.1968 -3.52808
lowerback -0.668081 0.768377 0.769862
upperback -5.39442 1.16543 2.17946
thorax -5.23114 0.612595 1.77974
lowerneck 12.7522 4.01308 -2.76653
upperneck -12.9528 5.64172 4.63518
head -6.23974 2.50722 1.40702
rclavicle 5.49888e-014 8.34896e-015
rhumerus -43.911 -7.49484 -20.7364
rradius 144.838
rwrist -68.3144
rhand -21.0878 36.4972
rfingers 7.12502
rthumb 5.28956 6.58322
lclavicle 5.49888e-014 8.34896e-015
lhumerus -52.0257 11.437 11.1442
lradius 144.459
lwrist 56.9203
lhand 11.1099 27.9239
lfingers 7.12502
lthumb 36.1783 54.1964
rfemur -21.3866 4.8628 30.4344
rtibia 41.2446
rfoot -21.9832 -27.4307
rtoes 21.5172
lfemur -37.3094 -23.9799 5.76553
ltibia 22.6077
lfoot -14.9775 19.0638
ltoes -18.6286
189
root 8.47781 15.588 -16.0109 3.84736 17.3852 -3.55748
lowerback -0.875354 0.764396 0.739889
upperback -5.51432 1.16366 2.27353
thorax -5.2423 0.616859 1.89673
lowerneck 12.3766 4.00576 -2.64157
upperneck -11.3945 5.57656 4.56319
head -5.67581 2.50053 1.38645
rclavicle -7.0817e-015 -1.19271e-015
rhumerus -43.2163 -5.81408 -20.3694
rradius 144.571
rwrist -68.4453
rhand -21.1688 37.1392
rfingers 7.12502
rthumb 5.21135 7.22325
lclavicle -7.0817e-015 -1.19271e-015
lhumerus -51.4785 9.90805 11.63
lradius 144.291
lwrist 55.3459
lhand 11.864 27.8394
lfingers 7.12502
lthumb 36.892 53.9317
rfemur -21.2013 4.6491 30.4236
rtibia 41.3535
rfoot -22.2489 -27.4097
rtoes 21.4276
lfemur -37.2997 -24.7389 5.9969
ltibia 22.6038
lfoot -13.781 19.2685
ltoes -22.5323
190
root 8.49857 15.5909 -15.9803 3.76897 17.579 -3.64996
lowerback -1.02184 0.7486 0.74988
upperback -5.67454 1.15104 2.39508
thorax -5.33048 0.61511 2.01965
lowerneck 11.6592 3.98989 -2.43882
upperneck -9.30384 5.49337 4.44533
head -4.89186 2.49684 1.35233
rclavicle 3.01159e-014 2.98177e-015
rhumerus -42.4756 -4.06442 -20.1346
rradius 144.254
rwrist -68.1765
rhand -20.4036 37.598
rfingers 7.12502
rthumb 5.9502 7.70156
lclavicle 3.01159e-014 2.98177e-015
lhumerus -50.86 8.3219 12.3346
lradius 144.086
lwrist 53.4218
lhand 12.863 27.5134
lfingers 7.12502
lthumb 37.8364 53.357
rfemur -20.9936 4.48639 30.4804
rtibia 41.3435
rfoot -22.5437 -27.299
rtoes 21.9552
lfemur -37.4158 -25.4602 6.37567
ltibia 22.6334
lfoot -13.0584 19.2137
ltoes -24.4307
191
root 8.52392 15.5961 -15.9461 3.66712 17.7564 -3.55472
lowerback -1.25782 0.746069 0.637804
upperback -5.72008 1.14644 2.48481
thorax -5.24839 0.621292 2.17873
lowerneck 10.4638 3.9219 -2.383
upperneck -6.20433 5.28908 4.22406
head -4.13862 2.4695 1.48255
rclavicle 1.49089e-015 1.90833e-014
rhumerus -41.53 -2.53766 -19.8985
rradius 143.941
rwrist -67.8339
rhand -19.7521 36.6699
rfingers 7.12502
rthumb 6.5791 6.79207
lclavicle 1.49089e-015 1.90833e-014
lhumerus -50.1893 6.79957 13.3286
lradius 143.958
lwrist 51.295
lhand 13.6146 27.0486
lfingers 7.12502
lthumb 38.546 52.6972
rfemur -20.6373 4.20722 30.3337
rtibia 41.2588
rfoot -22.6672 -27.2106
rtoes 21.8528
lfemur -37.4763 -26.0741 6.40659
ltibia 22.7368
lfoot -13.3243 18.9416
ltoes -23.585
192
root 8.55226 15.5999 -15.9105 3.52064 18.0054 -3.65434
lowerback -1.52863 0.718392 0.828382
upperback -5.77756 1.11302 2.57157
thorax -5.15209 0.598919 2.16621
lowerneck 9.12835 3.8441 -2.29755
upperneck -3.43271 5.11321 4.15516
head -2.89548 2.42671 1.47977
rclavicle 8.59744e-015 7.95139e-016
rhumerus -40.5509 -1.0309 -19.9484
rradius 143.621
rwrist -67.2574
rhand -19.8208 35.3938
rfingers 7.12502
rthumb 6.5128 5.5139
lclavicle 8.59744e-015 7.95139e-016
lhumerus -49.3996 5.32057 14.2521
lradius 143.836
lwrist 49.245
lhand 13.345 26.9316
lfingers 7.12502
lthumb 38.2916 52.6509
rfemur -20.2845 4.0998 30.3804
rtibia 41.2308
rfoot -22.8414 -27.3469
rtoes 21.6286
lfemur -37.5336 -26.361 6.46735
ltibia 22.8317
lfoot -12.868 18.793
ltoes -24.3868
193
root 8.57466 15.5965 -15.8763 3.45462 18.2433 -3.80819
lowerback -1.73644 0.682574 1.01504
upperback -5.96609 1.07369 2.64644
thorax -5.23009 0.574559 2.14309
lowerneck 7.45456 3.75731 -2.12098
upperneck -0.151325 4.93588 4.13256
head -1.48621 2.38813 1.48592
rclavicle 5.37216e-014 2.10712e-014
rhumerus -39.7279 0.509625 -20.1734
rradius 143.432
rwrist -66.6387
rhand -19.9741 34.5964
rfingers 7.12502
rthumb 6.36483 4.71203
lclavicle 5.37216e-014 2.10712e-014
lhumerus -48.4956 3.86199 15.1278
lradius 143.547
lwrist 47.2768
lhand 12.7291 26.9119
lfingers 7.12502
lthumb 37.71 52.7894
rfemur -20.1204 4.25501 30.516
rtibia 41.3219
rfoot -23.3409 -27.5266
rtoes 22.2578
lfemur -37.6213 -26.2109 6.47928
ltibia 22.8796
lfoot -11.779 18.8539
ltoes -27.0005
194
root 8.59661 15.5865 -15.8431 3.5164 18.4753 -3.51743
lowerback -1.82931 0.652501 0.721725
upperback -6.22335 1.03563 2.61652
thorax -5.45277 0.571635 2.27913
lowerneck 5.27653 3.66045 -1.9647
upperneck 3.91794 4.73373 4.25652
head 0.174074 2.34963 1.57322
rclavicle 3.3197e-014 1.07344e-014
rhumerus -38.9512 2.10448 -20.251
rradius 143.28
rwrist -66.0886
rhand -19.8707 34.4755
rfingers 7.12502
rthumb 6.46468 4.59412
lclavicle 3.3197e-014 1.07344e-014
lhumerus -47.5498 2.27324 16.279
lradius 143.138
lwrist 45.3645
lhand 12.4976 26.5175
lfingers 7.12502
lthumb 37.4912 52.4534
rfemur -20.022 4.22447 30.2082
rtibia 41.5091
rfoot -23.7415 -27.6307
rtoes 22.8756
lfemur -37.5984 -26.0927 5.99152
ltibia 22.8853
lfoot -11.7744 18.7862
ltoes -27.4727
